<svg width="746" height="222" viewBox="0 0 746 222" fill="none" xmlns="http://www.w3.org/2000/svg">
<path d="M92.5 0H129.5C180.5 0 221.9 41.4 221.8 92.5V129.5C221.8 180.5 180.4 221.9 129.3 221.8H92.3C41.3 221.8 0 180.4 0 129.4V92.4C0.1 41.3 41.5 0 92.5 0Z" fill="#3174E0"/>
<path d="M98.7997 57.9999C93.2997 58.4999 87.5997 58.9999 82.0997 59.4999C77.6997 59.8999 73.2997 59.9999 68.9997 61.0999C65.5997 61.8999 62.4997 63.5999 59.9997 65.9999C52.3997 73.5999 52.3997 85.8999 59.8997 93.3999C64.9997 98.3999 72.5997 99.2999 79.2997 100.7C86.2997 102.3 93.2997 103.9 100.3 105.3C100.5 105.4 100.6 105.4 100.8 105.4C108.6 107.2 114.8 113.3 116.6 121.2C116.6 121.3 116.6 121.3 116.7 121.3C118.3 128.4 119.8 135.3 121.4 142.4C122.9 149.1 123.8 156.9 128.8 161.9C136.4 169.4 148.6 169.4 156.3 161.8C162.5 155.7 162.2 147.3 162.9 139.2C163.5 131.9 164.2 124.5 164.8 117.2C165.4 110 166.1 102.9 166.7 95.6999C167 92.3999 167.4 89.1999 167.5 85.8999C167.7 83.8999 167.6 81.8999 167.4 79.8999C167.2 77.8999 166.8 76.0999 166.2 74.0999C164.7 69.6999 162.3 65.7999 159.1 62.5999C157.4 60.8999 155.6 59.4999 153.7 58.2999C151.8 57.1999 149.7 56.1999 147.6 55.4999C145.5 54.7999 143.3 54.3999 141.1 54.1999C138 53.8999 134.9 54.3999 131.9 54.6999" fill="white"/>
<path d="M54.2 143.8C54 137.8 56.2 132.7 60.7 128.3C65.1 123.9 70.3 121.6 76.2 121.8C82.2 121.7 87.7 124.3 92.6 129.3C97.6 134.3 100.1 139.7 100.3 145.4C100.5 151.1 98.5 156.1 93.9 160.6C89.3 165.2 83.9 167.6 78.1 167.6C72.1 167.7 66.6 165.1 61.7 160.1C56.9 155.1 54.3 149.7 54.2 143.8Z" fill="white"/>
<path d="M290.1 184.4H321.3C324.1 184.4 326.3 182.2 326.3 179.4V133.4H387.1C389.9 133.4 392.1 131.2 392.1 128.4V106.2C392.1 103.4 389.9 101.2 387.1 101.2H328.3C327.2 101.2 326.3 100.3 326.3 99.1998V70.4998C326.3 69.3998 327.2 68.4998 328.3 68.4998H395.8C398.6 68.4998 400.8 66.2998 400.8 63.4998V41.2998C400.8 38.4998 398.6 36.2998 395.8 36.2998H290.1C287.3 36.2998 285.1 38.4998 285.1 41.2998V179.4C285.1 182.2 287.3 184.4 290.1 184.4Z" fill="black" fill-opacity="0.92"/>
<path d="M415 184.4H442.4C445.2 184.4 447.4 182.2 447.4 179.4V41C447.4 38.2 445.2 36 442.4 36H415C412.2 36 410 38.2 410 41V179.4C410 182.2 412.2 184.4 415 184.4Z" fill="black" fill-opacity="0.92"/>
<path d="M464.4 184.4H491.8C494.6 184.4 496.8 182.2 496.8 179.4V90.3999C496.8 87.5999 494.6 85.3999 491.8 85.3999H464.4C461.6 85.3999 459.4 87.5999 459.4 90.3999V179.4C459.4 182.2 461.6 184.4 464.4 184.4Z" fill="black" fill-opacity="0.92"/>
<path d="M555.8 107.2C559.4 105.2 563.4 104.2 567.8 104.2C572.5 104.2 576.7 105.4 580.4 107.8C583.1 109.5 585.5 111.9 587.6 115C589 117.1 591.8 117.8 594 116.6L614.4 106C616.8 104.7 617.8 101.7 616.6 99.3002C612.9 92.1002 607.3 86.4002 599.9 82.0002C591 76.8002 580.4 74.2002 568 74.2002C556.1 74.2002 545.5 76.6002 536.1 81.3002C526.7 86.0002 519.3 92.7002 514 101.2C508.7 109.7 506 119.4 506 130.2C506 140.9 508.7 150.5 514 159C519.3 167.5 526.7 174.2 536.1 179C545.5 183.8 556.1 186.2 568 186.2C580.3 186.2 590.9 183.6 599.8 178.4C607.2 174.1 612.8 168.3 616.6 161.1C617.9 158.7 616.9 155.7 614.4 154.4L594 143.8C591.8 142.6 589 143.3 587.6 145.4C585.5 148.5 583.1 150.9 580.4 152.6C576.7 155 572.5 156.2 567.8 156.2C563.4 156.2 559.4 155.2 555.8 153.2C552.2 151.2 549.3 148.2 547.2 144.3C545.1 140.4 544 135.7 544 130.2C544 124.7 545.1 120 547.2 116.1C549.3 112.2 552.2 109.2 555.8 107.2Z" fill="black" fill-opacity="0.92"/>
<path d="M708.1 184.4H740.8C745 184.4 747.3 179.6 744.7 176.3L703.2 123.6C702.6 122.8 702.6 121.7 703.3 121L742.2 81.1C744.1 79.2 742.7 76 740.1 76H704.6C703.3 76 702.1 76.5 701.1 77.4L666.9 110.5C665.6 111.7 663.5 110.8 663.5 109.1V41C663.5 38.2 661.3 36 658.5 36H631.1C628.3 36 626.1 38.2 626.1 41V179.4C626.1 182.2 628.3 184.4 631.1 184.4H658.5C661.3 184.4 663.5 182.2 663.5 179.4V158.6C663.5 158.1 663.7 157.6 664.1 157.2L673.5 147.7C674.3 146.8 675.7 146.9 676.5 147.9L704.1 182.6C705.2 183.7 706.6 184.4 708.1 184.4Z" fill="black" fill-opacity="0.92"/>
<path d="M462.299 70.8999C458.199 66.9999 456.199 62.0999 456.199 56.1999C456.199 50.2999 458.199 45.2999 462.299 41.4999C466.299 37.3999 471.599 35.4999 478.199 35.5999C484.899 35.5999 490.199 37.5999 494.099 41.1999C498.099 44.8999 499.999 49.5999 499.999 55.5999C499.999 61.7999 497.999 66.9999 494.099 70.8999C490.099 74.9999 484.799 76.8999 478.199 76.7999C471.599 76.6999 466.299 74.7999 462.299 70.8999Z" fill="black" fill-opacity="0.92"/>
</svg>
